<svg width="1792.0000000000002" height="1792.0000000000002" xmlns="http://www.w3.org/2000/svg">

 <g>
  <title>background</title>
  <rect fill="none" id="canvas_background" height="402" width="582" y="-1" x="-1"/>
 </g>
 <g>
  <title>Layer 1</title>
  <ellipse stroke="null" ry="885" rx="885.000125" id="svg_2" cy="895.999997" cx="900.000021" stroke-opacity="null" stroke-width="null" fill="#36d6d6"/>
  <path stroke="null" fill="#ffffff" id="svg_1" d="m1478.40176,1017.249539q0,3.789049 -0.783852,5.304668q-50.166509,203.093017 -210.072258,329.268342t-374.681116,126.175326q-114.442349,0 -221.438107,-41.679537t-190.867891,-118.976133l-101.11687,97.75746q-14.893182,14.398386 -35.273327,14.398386t-35.273327,-14.398386t-14.893182,-34.101439l0,-339.498774q0,-19.703054 14.893182,-34.101439t35.273327,-14.398386l351.165565,0q20.380144,0 35.273327,14.398386t14.893182,34.101439t-14.893182,34.101439l-107.387684,103.819938q55.653471,50.015444 126.200125,77.296596t146.580269,27.281152q105.036129,0 195.962927,-49.257635t145.796418,-135.647948q8.622369,-12.882766 41.544141,-88.663742q6.270814,-17.429625 23.515551,-17.429625l150.499528,0q10.190072,0 17.636663,7.199193t7.446591,17.05072zm19.596293,-606.247811l0,339.498774q0,19.703054 -14.893182,34.101439t-35.273327,14.398386l-351.165565,0q-20.380144,0 -35.273327,-14.398386t-14.893182,-34.101439t14.893182,-34.101439l108.171536,-104.577747q-116.010053,-103.819938 -273.564246,-103.819938q-105.036129,0 -195.962927,49.257635t-145.796418,135.647948q-8.622369,12.882766 -41.544141,88.663742q-6.270814,17.429625 -23.515551,17.429625l-155.98649,0q-10.190072,0 -17.636663,-7.199193t-7.446591,-17.05072l0,-5.304668q50.950361,-203.093017 211.639961,-329.268342t376.24882,-126.175326q114.442349,0 222.613885,42.058442t192.043668,118.597228l101.900722,-97.75746q14.893182,-14.398386 35.273327,-14.398386t35.273327,14.398386t14.893182,34.101439z"/>
 </g>
</svg>